<svg width="44" height="44" viewBox="0 0 44 44" fill="none" xmlns="http://www.w3.org/2000/svg">
<path d="M37 0H7C3.13401 0 0 3.13401 0 7V37C0 40.866 3.13401 44 7 44H37C40.866 44 44 40.866 44 37V7C44 3.13401 40.866 0 37 0Z" fill="#EFF8F1"/>
<g clip-path="url(#clip0)">
<path d="M29.6171 10.3003H15.3828C14.0352 10.3019 12.7432 10.8387 11.7903 11.793C10.8374 12.7474 10.3014 14.0412 10.2998 15.3909L10.2998 27.6091C10.3014 28.9588 10.8374 30.2526 11.7903 31.207C12.7432 32.1613 14.0352 32.6981 15.3828 32.6997H29.6171C30.9647 32.6981 32.2567 32.1613 33.2096 31.207C34.1625 30.2526 34.6985 28.9588 34.7001 27.6091V15.3909C34.6985 14.0412 34.1625 12.7474 33.2096 11.793C32.2567 10.8387 30.9647 10.3019 29.6171 10.3003V10.3003ZM15.3828 12.3423H29.6171C30.2258 12.3436 30.8202 12.5274 31.3238 12.8699C31.8274 13.2124 32.2171 13.698 32.4429 14.2642L24.6577 22.0621C24.0845 22.6346 23.3082 22.956 22.4988 22.956C21.6893 22.956 20.913 22.6346 20.3399 22.0621L12.557 14.2581C12.7837 13.6931 13.1739 13.2088 13.6774 12.8674C14.1809 12.526 14.7748 12.3432 15.3828 12.3423ZM29.6171 30.6637H15.3828C14.5749 30.6621 13.8007 30.3396 13.23 29.7669C12.6593 29.1943 12.3388 28.4182 12.3388 27.6091V16.9187L18.9102 23.4963C19.8645 24.4498 21.1574 24.9853 22.5054 24.9853C23.8533 24.9853 25.1463 24.4498 26.1005 23.4963L32.666 16.9187V27.6091C32.666 28.4191 32.3448 29.1958 31.773 29.7686C31.2013 30.3414 30.4258 30.6634 29.6171 30.6637V30.6637Z" fill="#4C9F70" stroke="#4C9F70"/>
</g>
<defs>
<clipPath id="clip0">
<rect width="25" height="23" fill="white" transform="translate(10 10)"/>
</clipPath>
</defs>
</svg>
