<svg width="44" height="44" viewBox="0 0 44 44" fill="none" xmlns="http://www.w3.org/2000/svg">
<path d="M37 0H7C3.13401 0 0 3.13401 0 7V37C0 40.866 3.13401 44 7 44H37C40.866 44 44 40.866 44 37V7C44 3.13401 40.866 0 37 0Z" fill="#EFF8F1"/>
<g clip-path="url(#clip0)">
<path d="M22.498 11.6809C20.9472 11.2464 19.3169 11.1767 17.7347 11.4774C16.1526 11.7781 14.6614 12.4409 13.3782 13.414C12.0949 14.3871 11.0543 15.6441 10.3379 17.0864C9.62147 18.5288 9.24866 20.1174 9.24866 21.7279C9.24866 23.3384 9.62147 24.9271 10.3379 26.3695C11.0543 27.8118 12.0949 29.0688 13.3782 30.0419C14.6614 31.015 16.1526 31.6778 17.7347 31.9785C19.3169 32.2792 20.9472 32.2095 22.498 31.7749C24.0485 32.2088 25.6783 32.278 27.26 31.977C28.8417 31.676 30.3322 31.0131 31.6149 30.04C32.8977 29.067 33.9378 27.8102 34.6539 26.3682C35.37 24.9262 35.7426 23.338 35.7426 21.7279C35.7426 20.1179 35.37 18.5297 34.6539 17.0877C33.9378 15.6456 32.8977 14.3889 31.6149 13.4159C30.3322 12.4428 28.8417 11.7799 27.26 11.4789C25.6783 11.1779 24.0485 11.247 22.498 11.6809V11.6809ZM10.808 21.7279C10.8093 20.5507 11.0446 19.3855 11.5002 18.3C11.9558 17.2145 12.6227 16.2304 13.4619 15.4049C14.3012 14.5794 15.2962 13.929 16.3891 13.4914C17.482 13.0538 18.6509 12.8378 19.828 12.8559C18.3144 13.7897 17.0648 15.0951 16.1982 16.6481C15.3315 18.2011 14.8765 19.95 14.8765 21.7284C14.8765 23.5069 15.3315 25.2558 16.1982 26.8088C17.0648 28.3617 18.3144 29.6672 19.828 30.6009C18.6508 30.6191 17.4818 30.4031 16.3889 29.9654C15.2959 29.5278 14.3009 28.8772 13.4616 28.0516C12.6223 27.226 11.9555 26.2418 11.4999 25.1562C11.0444 24.0706 10.8092 22.9053 10.808 21.7279V21.7279ZM25.308 30.6019C23.5529 30.6019 21.8372 30.0815 20.3779 29.1064C18.9185 28.1313 17.7811 26.7454 17.1095 25.1239C16.4378 23.5024 16.2621 21.7181 16.6045 19.9967C16.9469 18.2753 17.7921 16.6941 19.0331 15.4531C20.2742 14.212 21.8554 13.3669 23.5768 13.0245C25.2982 12.6821 27.0824 12.8578 28.7039 13.5294C30.3254 14.2011 31.7114 15.3385 32.6865 16.7978C33.6615 18.2571 34.182 19.9728 34.182 21.7279C34.1794 24.0803 33.2438 26.3356 31.5806 27.9992C29.9175 29.6628 27.6624 30.5988 25.31 30.6019H25.308Z" fill="#4C9F70" stroke="#4C9F70"/>
<path d="M22.9236 19.7976H21.9364V23.434H22.9236V19.7976ZM24.7906 23.434C25.8986 23.434 26.6017 22.7521 26.6017 21.6158C26.6017 20.4794 25.8986 19.7976 24.7764 19.7976H23.3915V23.434H24.7906ZM24.3787 22.5959V20.6357H24.7267C25.2949 20.6357 25.6074 20.8558 25.6074 21.6158C25.6074 22.3757 25.2949 22.5959 24.7551 22.5959H24.3787ZM27.0585 23.434H28.0457V22.2337H28.3866L29.0258 23.434H30.0982L29.3596 22.0774C29.7467 21.891 29.9775 21.5377 29.9775 21.0334C29.9775 20.2592 29.436 19.7976 28.6281 19.7976H27.0585V23.434ZM28.0457 21.4666V20.5859H28.3937C28.7399 20.5859 28.9477 20.7209 28.9477 21.0334C28.9477 21.3441 28.7399 21.4666 28.3937 21.4666H28.0457Z" fill="#4C9F70"/>
</g>
<defs>
<clipPath id="clip0">
<rect width="26.992" height="21.456" fill="white" transform="translate(9 11)"/>
</clipPath>
</defs>
</svg>
