<svg width="44" height="44" viewBox="0 0 44 44" fill="none" xmlns="http://www.w3.org/2000/svg">
<path d="M37 0H7C3.13401 0 0 3.13401 0 7V37C0 40.866 3.13401 44 7 44H37C40.866 44 44 40.866 44 37V7C44 3.13401 40.866 0 37 0Z" fill="#FFBB00"/>
<g clip-path="url(#clip0)">
<path d="M32.438 17.135C32.0083 16.6826 31.4892 16.3246 30.9137 16.0836C30.3382 15.8426 29.7188 15.7239 29.095 15.735H25.915V14.013C25.915 13.8106 25.8346 13.6166 25.6915 13.4735C25.5484 13.3304 25.3544 13.25 25.152 13.25H10.013C9.81064 13.25 9.61657 13.3304 9.47348 13.4735C9.33039 13.6166 9.25 13.8106 9.25 14.013V27.418C9.25 27.6204 9.33039 27.8144 9.47348 27.9575C9.61657 28.1006 9.81064 28.181 10.013 28.181H12.32C12.4464 28.7454 12.7612 29.2499 13.2126 29.6114C13.6641 29.9729 14.2252 30.1699 14.8035 30.1699C15.3818 30.1699 15.9429 29.9729 16.3944 29.6114C16.8458 29.2499 17.1606 28.7454 17.287 28.181H26.377C26.5034 28.7454 26.8182 29.2499 27.2696 29.6114C27.7211 29.9729 28.2822 30.1699 28.8605 30.1699C29.4388 30.1699 29.9999 29.9729 30.4514 29.6114C30.9028 29.2499 31.2176 28.7454 31.344 28.181H33.036C33.2384 28.181 33.4324 28.1006 33.5755 27.9575C33.7186 27.8144 33.799 27.6204 33.799 27.418V21.11C33.8601 19.6612 33.3743 18.2423 32.438 17.135V17.135ZM14.804 28.635C14.6 28.6358 14.4003 28.576 14.2304 28.4632C14.0604 28.3503 13.9278 28.1896 13.8493 28.0012C13.7708 27.8129 13.75 27.6056 13.7895 27.4054C13.8291 27.2053 13.9271 27.0214 14.0713 26.877C14.2155 26.7327 14.3993 26.6345 14.5994 26.5947C14.7995 26.555 15.0069 26.5756 15.1953 26.6539C15.3837 26.7322 15.5446 26.8647 15.6576 27.0345C15.7706 27.2044 15.8306 27.404 15.83 27.608C15.8303 27.7433 15.8039 27.8772 15.7524 28.0023C15.7008 28.1274 15.6252 28.2411 15.5297 28.3369C15.4343 28.4327 15.3209 28.5088 15.196 28.5608C15.0711 28.6128 14.9373 28.6397 14.802 28.64L14.804 28.635ZM24.404 26.651H17.261C17.2301 26.648 17.1989 26.648 17.168 26.651C16.979 26.1775 16.652 25.7718 16.2296 25.4864C15.8072 25.201 15.3087 25.0491 14.7989 25.0504C14.2891 25.0517 13.7915 25.2061 13.3705 25.4937C12.9495 25.7812 12.6246 26.1886 12.438 26.663C12.3835 26.6509 12.3278 26.6449 12.272 26.645H10.777V14.771H24.404V26.651ZM28.86 28.635C28.6563 28.6354 28.457 28.5754 28.2874 28.4625C28.1178 28.3497 27.9855 28.1891 27.9072 28.001C27.8289 27.813 27.8081 27.6059 27.8474 27.406C27.8868 27.2061 27.9845 27.0224 28.1283 26.8781C28.272 26.7338 28.4554 26.6353 28.6551 26.5952C28.8548 26.5551 29.062 26.575 29.2503 26.6526C29.4387 26.7302 29.5998 26.8619 29.7133 27.0311C29.8268 27.2003 29.8876 27.3993 29.888 27.603C29.8888 27.7386 29.8628 27.873 29.8115 27.9985C29.7602 28.1241 29.6847 28.2382 29.5892 28.3345C29.4936 28.4307 29.3801 28.5072 29.2549 28.5594C29.1298 28.6117 28.9956 28.6387 28.86 28.639V28.635ZM32.274 26.651H31.213C31.0237 26.1809 30.6981 25.7781 30.278 25.4945C29.858 25.2109 29.3628 25.0593 28.856 25.0593C28.3492 25.0593 27.854 25.2109 27.434 25.4945C27.0139 25.7781 26.6884 26.1809 26.499 26.651H25.916V17.25H29.096C31.08 17.25 32.273 18.698 32.273 21.117L32.274 26.651Z" fill="white" stroke="white" stroke-width="0.5"/>
</g>
<defs>
<clipPath id="clip0">
<rect width="25.049" height="17.419" fill="white" transform="translate(9 13)"/>
</clipPath>
</defs>
</svg>
