<svg xmlns="http://www.w3.org/2000/svg" width="25.049" height="17.419" viewBox="0 0 25.049 17.419"><defs><style>.a{fill:#fff;stroke:#fff;stroke-width:0.5px;}</style></defs><path class="a" d="M70.308,76.035a4.5,4.5,0,0,0-3.343-1.4h-3.18V72.913a.763.763,0,0,0-.763-.763H47.883a.763.763,0,0,0-.763.763V86.318a.763.763,0,0,0,.763.763H50.19a2.545,2.545,0,0,0,4.967,0h9.09a2.545,2.545,0,0,0,4.967,0h1.692a.763.763,0,0,0,.763-.763V80.01A5.779,5.779,0,0,0,70.308,76.035Zm-17.634,11.5A1.03,1.03,0,1,1,53.7,86.508a1.03,1.03,0,0,1-1.028,1.032Zm9.6-1.984H55.131a.478.478,0,0,0-.093,0,2.544,2.544,0,0,0-4.73.012.763.763,0,0,0-.166-.018H48.647V73.671H62.274Zm4.456,1.984a1.03,1.03,0,1,1,1.028-1.032A1.03,1.03,0,0,1,66.73,87.539Zm3.414-1.984H69.083a2.541,2.541,0,0,0-4.714,0h-.583V76.15h3.18c1.984,0,3.177,1.448,3.177,3.867Z" transform="translate(-46.87 -71.9)"/></svg>