<svg xmlns="http://www.w3.org/2000/svg" width="26.096" height="17.719" viewBox="0 0 26.096 17.719"><defs><style>.a{fill:#fff;stroke:#fff;stroke-width:0.5px;}</style></defs><g transform="translate(0.25 0.25)"><g transform="translate(0 0)"><path class="a" d="M25.186,81.753l-.838-.838a1.4,1.4,0,0,0-1.98,0L10.587,92.7,3.227,85.335a1.4,1.4,0,0,0-1.98,0l-.839.838a1.4,1.4,0,0,0,0,1.98l8.311,8.31a.318.318,0,0,0,.036.043l.839.825a1.382,1.382,0,0,0,.993.394h0a1.378,1.378,0,0,0,.99-.394l.839-.832a.213.213,0,0,0,.032-.036L25.186,83.73A1.4,1.4,0,0,0,25.186,81.753Z" transform="translate(0 -80.506)"/></g></g></svg>