<svg xmlns="http://www.w3.org/2000/svg" width="21.996" height="22.037" viewBox="0 0 21.996 22.037"><defs><style>.a{fill:#4c9f70;stroke:#4c9f70;strokeWidth:0.5px;}</style></defs><g transform="translate(0.25 0.25)"><path class="a" d="M17.913,0H3.583A3.583,3.583,0,0,0,0,3.583V14.33a3.583,3.583,0,0,0,3.583,3.583h2.6l3.987,3.37a.9.9,0,0,0,1.157,0l3.992-3.37h2.6A3.583,3.583,0,0,0,21.5,14.33V3.583A3.583,3.583,0,0,0,17.913,0ZM19.7,14.33a1.791,1.791,0,0,1-1.791,1.791h-2.6a1.791,1.791,0,0,0-1.156.424l-3.412,2.881-3.41-2.881h0a1.791,1.791,0,0,0-1.158-.424h-2.6A1.791,1.791,0,0,1,1.791,14.33V3.583A1.791,1.791,0,0,1,3.583,1.791h14.33A1.791,1.791,0,0,1,19.7,3.583Z"/><path class="a" d="M6.9,6.791h4.478a.9.9,0,1,0,0-1.791H6.9a.9.9,0,1,0,0,1.791Z" transform="translate(-0.626 -0.522)"/><path class="a" d="M15.852,9H6.9a.9.9,0,0,0,0,1.791h8.956a.9.9,0,0,0,0-1.791Z" transform="translate(-0.626 -0.939)"/><path class="a" d="M15.852,13H6.9a.9.9,0,1,0,0,1.791h8.956a.9.9,0,1,0,0-1.791Z" transform="translate(-0.626 -1.357)"/></g></svg>