<svg width="44" height="44" viewBox="0 0 44 44" fill="none" xmlns="http://www.w3.org/2000/svg">
<path d="M37 0H7C3.13401 0 0 3.13401 0 7V37C0 40.866 3.13401 44 7 44H37C40.866 44 44 40.866 44 37V7C44 3.13401 40.866 0 37 0Z" fill="#EFF8F1"/>
<g clip-path="url(#clip0)">
<path d="M30.163 10.25H15.833C14.8827 10.25 13.9714 10.6275 13.2994 11.2994C12.6275 11.9714 12.25 12.8827 12.25 13.833L12.25 24.58C12.25 25.5303 12.6275 26.4416 13.2994 27.1136C13.9714 27.7855 14.8827 28.163 15.833 28.163H18.433L22.42 31.533C22.5821 31.669 22.7869 31.7436 22.9985 31.7436C23.2101 31.7436 23.4149 31.669 23.577 31.533L27.569 28.163H30.169C31.1189 28.1625 32.0298 27.7847 32.7013 27.1129C33.3728 26.441 33.75 25.5299 33.75 24.58V13.833C33.75 13.3621 33.6572 12.8959 33.4769 12.4609C33.2966 12.026 33.0323 11.6308 32.6992 11.298C32.366 10.9653 31.9706 10.7014 31.5354 10.5216C31.1002 10.3418 30.6339 10.2495 30.163 10.25V10.25ZM31.95 24.58C31.95 25.055 31.7613 25.5106 31.4254 25.8464C31.0896 26.1823 30.634 26.371 30.159 26.371H27.559C27.1357 26.3713 26.7261 26.5215 26.403 26.795L22.991 29.676L19.581 26.795C19.2574 26.521 18.847 26.3708 18.423 26.371H15.823C15.3496 26.3686 14.8963 26.1789 14.5624 25.8433C14.2285 25.5076 14.041 25.0534 14.041 24.58V13.833C14.0409 13.5976 14.0871 13.3646 14.1771 13.1471C14.2671 12.9296 14.3991 12.732 14.5656 12.5656C14.732 12.3991 14.9296 12.2672 15.1471 12.1771C15.3646 12.0871 15.5976 12.0409 15.833 12.041H30.163C30.6375 12.0421 31.0922 12.2314 31.4272 12.5673C31.7622 12.9033 31.9503 13.3585 31.95 13.833V24.58Z" fill="#4C9F70" stroke="#4C9F70"/>
<path d="M18.5239 16.519H23.0019C23.1271 16.5316 23.2535 16.5178 23.3729 16.4785C23.4924 16.4392 23.6023 16.3753 23.6956 16.2909C23.7889 16.2066 23.8634 16.1036 23.9145 15.9886C23.9655 15.8737 23.9918 15.7493 23.9918 15.6235C23.9918 15.4977 23.9655 15.3734 23.9145 15.2584C23.8634 15.1435 23.7889 15.0405 23.6956 14.9561C23.6023 14.8717 23.4924 14.8078 23.3729 14.7685C23.2535 14.7293 23.1271 14.7154 23.0019 14.728H18.5239C18.3988 14.7154 18.2724 14.7293 18.1529 14.7685C18.0335 14.8078 17.9235 14.8717 17.8303 14.9561C17.737 15.0405 17.6625 15.1435 17.6114 15.2584C17.5604 15.3734 17.5341 15.4977 17.5341 15.6235C17.5341 15.7493 17.5604 15.8737 17.6114 15.9886C17.6625 16.1036 17.737 16.2066 17.8303 16.2909C17.9235 16.3753 18.0335 16.4392 18.1529 16.4785C18.2724 16.5178 18.3988 16.5316 18.5239 16.519V16.519Z" fill="#4C9F70" stroke="#4C9F70"/>
<path d="M27.476 18.311H18.524C18.302 18.3333 18.0961 18.4372 17.9464 18.6027C17.7968 18.7682 17.7139 18.9833 17.7139 19.2065C17.7139 19.4296 17.7968 19.6448 17.9464 19.8103C18.0961 19.9757 18.302 20.0797 18.524 20.102H27.48C27.702 20.0797 27.9078 19.9757 28.0575 19.8103C28.2072 19.6448 28.2901 19.4296 28.2901 19.2065C28.2901 18.9833 28.2072 18.7682 28.0575 18.6027C27.9078 18.4372 27.702 18.3333 27.48 18.311H27.476Z" fill="#4C9F70" stroke="#4C9F70"/>
<path d="M27.4759 21.893H18.5239C18.3988 21.8804 18.2724 21.8942 18.1529 21.9335C18.0335 21.9728 17.9235 22.0367 17.8303 22.1211C17.737 22.2054 17.6625 22.3084 17.6114 22.4234C17.5604 22.5383 17.5341 22.6627 17.5341 22.7885C17.5341 22.9143 17.5604 23.0386 17.6114 23.1536C17.6625 23.2685 17.737 23.3715 17.8303 23.4559C17.9235 23.5403 18.0335 23.6042 18.1529 23.6435C18.2724 23.6827 18.3988 23.6966 18.5239 23.684H27.4799C27.6051 23.6966 27.7315 23.6827 27.851 23.6435C27.9704 23.6042 28.0803 23.5403 28.1736 23.4559C28.2669 23.3715 28.3414 23.2685 28.3925 23.1536C28.4435 23.0386 28.4698 22.9143 28.4698 22.7885C28.4698 22.6627 28.4435 22.5383 28.3925 22.4234C28.3414 22.3084 28.2669 22.2054 28.1736 22.1211C28.0803 22.0367 27.9704 21.9728 27.851 21.9335C27.7315 21.8942 27.6051 21.8804 27.4799 21.893H27.4759Z" fill="#4C9F70" stroke="#4C9F70"/>
</g>
<defs>
<clipPath id="clip0">
<rect width="21.996" height="22.037" fill="white" transform="translate(12 10)"/>
</clipPath>
</defs>
</svg>
