<svg width="41" height="41" viewBox="0 0 41 41" fill="none" xmlns="http://www.w3.org/2000/svg">
<path d="M22.816 27.353H14.249C13.1135 27.3517 12.0249 26.9 11.2219 26.0971C10.419 25.2941 9.96733 24.2055 9.966 23.07V14.503C9.96733 13.3675 10.419 12.2789 11.2219 11.4759C12.0249 10.673 13.1135 10.2213 14.249 10.22H22.816C23.9515 10.2213 25.0401 10.673 25.8431 11.4759C26.646 12.2789 27.0977 13.3675 27.099 14.503V23.07C27.0977 24.2055 26.646 25.2941 25.8431 26.0971C25.0401 26.9 23.9515 27.3517 22.816 27.353V27.353ZM14.249 11.933C13.5674 11.933 12.9137 12.2038 12.4317 12.6857C11.9498 13.1677 11.679 13.8214 11.679 14.503V23.07C11.679 23.7516 11.9498 24.4053 12.4317 24.8873C12.9137 25.3692 13.5674 25.64 14.249 25.64H22.816C23.4976 25.64 24.1513 25.3692 24.6333 24.8873C25.1152 24.4053 25.386 23.7516 25.386 23.07V14.503C25.386 13.8214 25.1152 13.1677 24.6333 12.6857C24.1513 12.2038 23.4976 11.933 22.816 11.933H14.249ZM30.526 26.496V15.36C30.5299 15.2451 30.5107 15.1305 30.4694 15.0232C30.4281 14.9158 30.3657 14.8179 30.2858 14.7352C30.2058 14.6525 30.1101 14.5867 30.0042 14.5418C29.8983 14.4969 29.7845 14.4737 29.6695 14.4737C29.5545 14.4737 29.4407 14.4969 29.3348 14.5418C29.2289 14.5867 29.1332 14.6525 29.0533 14.7352C28.9733 14.8179 28.9109 14.9158 28.8696 15.0232C28.8283 15.1305 28.8091 15.2451 28.813 15.36V26.496C28.813 27.1776 28.5422 27.8313 28.0603 28.3133C27.5783 28.7952 26.9246 29.066 26.243 29.066H15.106C14.9911 29.0621 14.8765 29.0813 14.7692 29.1226C14.6618 29.1639 14.5639 29.2263 14.4812 29.3062C14.3985 29.3862 14.3327 29.4819 14.2878 29.5878C14.2429 29.6937 14.2197 29.8075 14.2197 29.9225C14.2197 30.0375 14.2429 30.1513 14.2878 30.2572C14.3327 30.3631 14.3985 30.4588 14.4812 30.5388C14.5639 30.6187 14.6618 30.6811 14.7692 30.7224C14.8765 30.7637 14.9911 30.7829 15.106 30.779H26.242C27.3777 30.7779 28.4666 30.3264 29.2697 29.5234C30.0729 28.7205 30.5247 27.6317 30.526 26.496V26.496Z" fill="black"/>
<path d="M14.178 22.194H14.678" stroke="black"/>
<path d="M14.178 19.194H14.678" stroke="black"/>
<path d="M14.178 16.194H14.678" stroke="black"/>
</svg>
