<svg xmlns="http://www.w3.org/2000/svg" width="41" height="41" viewBox="0 0 41 41"><defs><style>.a,.b{fill:none;}.b{stroke:#000;strokeLinecap:round;strokeWidth:1.5px;}</style></defs><rect class="a" width="41" height="41" rx="5"/><path d="M12.85,17.133H4.283A4.288,4.288,0,0,1,0,12.85V4.283A4.288,4.288,0,0,1,4.283,0H12.85a4.288,4.288,0,0,1,4.283,4.283V12.85A4.288,4.288,0,0,1,12.85,17.133ZM4.283,1.713a2.57,2.57,0,0,0-2.57,2.57V12.85a2.57,2.57,0,0,0,2.57,2.57H12.85a2.57,2.57,0,0,0,2.57-2.57V4.283a2.57,2.57,0,0,0-2.57-2.57ZM20.56,16.276V5.14a.857.857,0,1,0-1.713,0V16.276a2.57,2.57,0,0,1-2.57,2.57H5.14a.857.857,0,1,0,0,1.713H16.276A4.288,4.288,0,0,0,20.56,16.276Z" transform="translate(9.966 10.22)"/><path class="b" d="M14.178,23.194h.5" transform="translate(0 -1)"/><path class="b" d="M14.178,23.194h.5" transform="translate(0 -4)"/><path class="b" d="M14.178,23.194h.5" transform="translate(0 -7)"/></svg>