<svg xmlns="http://www.w3.org/2000/svg" width="41" height="41" viewBox="0 0 41 41"><defs><style>.a{fill:none;}</style></defs><rect class="a" width="41" height="41" rx="5"/><g transform="translate(9.865 9.035)"><path d="M6.342,0H3.624A3.624,3.624,0,0,0,0,3.624V6.342A3.624,3.624,0,0,0,3.624,9.966H6.342A3.624,3.624,0,0,0,9.966,6.342V3.624A3.624,3.624,0,0,0,6.342,0ZM8.154,6.342A1.812,1.812,0,0,1,6.342,8.154H3.624A1.812,1.812,0,0,1,1.812,6.342V3.624A1.812,1.812,0,0,1,3.624,1.812H6.342A1.812,1.812,0,0,1,8.154,3.624Z" transform="translate(0)"/><path d="M6.342,0H3.624A3.624,3.624,0,0,0,0,3.624V6.342A3.624,3.624,0,0,0,3.624,9.966H6.342A3.624,3.624,0,0,0,9.966,6.342V3.624A3.624,3.624,0,0,0,6.342,0ZM8.154,6.342A1.812,1.812,0,0,1,6.342,8.154H3.624A1.812,1.812,0,0,1,1.812,6.342V3.624A1.812,1.812,0,0,1,3.624,1.812H6.342A1.812,1.812,0,0,1,8.154,3.624Z" transform="translate(11.778)"/><path d="M6.342,13H3.624A3.624,3.624,0,0,0,0,16.624v2.718a3.624,3.624,0,0,0,3.624,3.624H6.342a3.624,3.624,0,0,0,3.624-3.624V16.624A3.624,3.624,0,0,0,6.342,13Zm1.812,6.342a1.812,1.812,0,0,1-1.812,1.812H3.624a1.812,1.812,0,0,1-1.812-1.812V16.624a1.812,1.812,0,0,1,1.812-1.812H6.342a1.812,1.812,0,0,1,1.812,1.812Z" transform="translate(0 -1.222)"/><path d="M19.342,13H16.624A3.624,3.624,0,0,0,13,16.624v2.718a3.624,3.624,0,0,0,3.624,3.624h2.718a3.624,3.624,0,0,0,3.624-3.624V16.624A3.624,3.624,0,0,0,19.342,13Zm1.812,6.342a1.812,1.812,0,0,1-1.812,1.812H16.624a1.812,1.812,0,0,1-1.812-1.812V16.624a1.812,1.812,0,0,1,1.812-1.812h2.718a1.812,1.812,0,0,1,1.812,1.812Z" transform="translate(-1.222 -1.222)"/></g></svg>