<svg width="41" height="41" viewBox="0 0 41 41" fill="none" xmlns="http://www.w3.org/2000/svg">
<path d="M16.207 9.035H13.489C12.5278 9.035 11.6061 9.41681 10.9264 10.0964C10.2468 10.7761 9.86499 11.6979 9.86499 12.659V15.377C9.86499 16.3381 10.2468 17.2599 10.9264 17.9396C11.6061 18.6192 12.5278 19.001 13.489 19.001H16.207C17.1681 19.001 18.0899 18.6192 18.7695 17.9396C19.4492 17.2599 19.831 16.3381 19.831 15.377V12.659C19.831 11.6979 19.4492 10.7761 18.7695 10.0964C18.0899 9.41681 17.1681 9.035 16.207 9.035V9.035ZM18.019 15.377C18.019 15.8576 17.8281 16.3185 17.4883 16.6583C17.1485 16.9981 16.6876 17.189 16.207 17.189H13.489C13.0084 17.189 12.5475 16.9981 12.2077 16.6583C11.8679 16.3185 11.677 15.8576 11.677 15.377V12.659C11.677 12.1784 11.8679 11.7175 12.2077 11.3777C12.5475 11.0379 13.0084 10.847 13.489 10.847H16.207C16.6876 10.847 17.1485 11.0379 17.4883 11.3777C17.8281 11.7175 18.019 12.1784 18.019 12.659V15.377Z" fill="black"/>
<path d="M27.985 9.035H25.267C24.3059 9.035 23.3841 9.41681 22.7045 10.0964C22.0248 10.7761 21.643 11.6979 21.643 12.659V15.377C21.643 16.3381 22.0248 17.2599 22.7045 17.9396C23.3841 18.6192 24.3059 19.001 25.267 19.001H27.985C28.9461 19.001 29.8679 18.6192 30.5476 17.9396C31.2272 17.2599 31.609 16.3381 31.609 15.377V12.659C31.609 11.6979 31.2272 10.7761 30.5476 10.0964C29.8679 9.41681 28.9461 9.035 27.985 9.035V9.035ZM29.797 15.377C29.797 15.8576 29.6061 16.3185 29.2663 16.6583C28.9265 16.9981 28.4656 17.189 27.985 17.189H25.267C24.7864 17.189 24.3255 16.9981 23.9857 16.6583C23.6459 16.3185 23.455 15.8576 23.455 15.377V12.659C23.455 12.1784 23.6459 11.7175 23.9857 11.3777C24.3255 11.0379 24.7864 10.847 25.267 10.847H27.985C28.4656 10.847 28.9265 11.0379 29.2663 11.3777C29.6061 11.7175 29.797 12.1784 29.797 12.659V15.377Z" fill="black"/>
<path d="M16.207 20.813H13.489C12.5278 20.813 11.6061 21.1948 10.9264 21.8744C10.2468 22.5541 9.86499 23.4759 9.86499 24.437V27.155C9.86499 28.1161 10.2468 29.0379 10.9264 29.7176C11.6061 30.3972 12.5278 30.779 13.489 30.779H16.207C17.1681 30.779 18.0899 30.3972 18.7695 29.7176C19.4492 29.0379 19.831 28.1161 19.831 27.155V24.437C19.831 23.4759 19.4492 22.5541 18.7695 21.8744C18.0899 21.1948 17.1681 20.813 16.207 20.813V20.813ZM18.019 27.155C18.019 27.6356 17.8281 28.0965 17.4883 28.4363C17.1485 28.7761 16.6876 28.967 16.207 28.967H13.489C13.0084 28.967 12.5475 28.7761 12.2077 28.4363C11.8679 28.0965 11.677 27.6356 11.677 27.155V24.437C11.677 23.9564 11.8679 23.4955 12.2077 23.1557C12.5475 22.8159 13.0084 22.625 13.489 22.625H16.207C16.6876 22.625 17.1485 22.8159 17.4883 23.1557C17.8281 23.4955 18.019 23.9564 18.019 24.437V27.155Z" fill="black"/>
<path d="M27.985 20.813H25.267C24.3059 20.813 23.3841 21.1948 22.7045 21.8744C22.0248 22.5541 21.643 23.4759 21.643 24.437V27.155C21.643 28.1161 22.0248 29.0379 22.7045 29.7176C23.3841 30.3972 24.3059 30.779 25.267 30.779H27.985C28.9461 30.779 29.8679 30.3972 30.5476 29.7176C31.2272 29.0379 31.609 28.1161 31.609 27.155V24.437C31.609 23.4759 31.2272 22.5541 30.5476 21.8744C29.8679 21.1948 28.9461 20.813 27.985 20.813V20.813ZM29.797 27.155C29.797 27.6356 29.6061 28.0965 29.2663 28.4363C28.9265 28.7761 28.4656 28.967 27.985 28.967H25.267C24.7864 28.967 24.3255 28.7761 23.9857 28.4363C23.6459 28.0965 23.455 27.6356 23.455 27.155V24.437C23.455 23.9564 23.6459 23.4955 23.9857 23.1557C24.3255 22.8159 24.7864 22.625 25.267 22.625H27.985C28.4656 22.625 28.9265 22.8159 29.2663 23.1557C29.6061 23.4955 29.797 23.9564 29.797 24.437V27.155Z" fill="black"/>
</svg>
