<svg width="490" height="490" viewBox="0 0 490 490" fill="none" xmlns="http://www.w3.org/2000/svg">
<g clip-path="url(#clip0)">
<path d="M468.3 255.8C468.4 255.7 468.4 255.7 468.5 255.6C468.8 255.2 469.1 254.9 469.3 254.5C469.4 254.4 469.4 254.3 469.5 254.2C469.7 253.8 470 253.4 470.2 253C470.2 252.9 470.3 252.8 470.3 252.8C470.5 252.4 470.7 252 470.9 251.5C470.9 251.4 470.9 251.4 471 251.3C471.2 250.9 471.3 250.4 471.5 249.9C471.5 249.8 471.5 249.7 471.6 249.7C471.7 249.2 471.9 248.8 471.9 248.3C471.9 248.1 471.9 248 472 247.8C472.1 247.4 472.1 247 472.2 246.6C472.3 246 472.3 245.5 472.3 244.9C472.3 244.3 472.3 243.8 472.2 243.2C472.2 242.8 472.1 242.4 472 242C472 241.8 472 241.7 471.9 241.5C471.8 241 471.7 240.6 471.6 240.1C471.6 240 471.6 239.9 471.5 239.9C471.4 239.4 471.2 239 471 238.5C471 238.4 471 238.4 470.9 238.3C470.7 237.9 470.5 237.4 470.3 237C470.3 236.9 470.2 236.8 470.2 236.8C470 236.4 469.8 236 469.5 235.6C469.4 235.5 469.4 235.4 469.3 235.3C469 234.9 468.8 234.5 468.5 234.2C468.4 234.1 468.4 234.1 468.3 234C467.9 233.6 467.6 233.1 467.1 232.7L368.2 133.9C361.5 127.2 350.6 127.2 343.9 133.9C337.2 140.6 337.2 151.5 343.9 158.2L413.5 227.8H136.8C127.3 227.8 119.6 235.5 119.6 244.9C119.6 254.4 127.3 262.1 136.8 262.1H413.6L344.5 331.2C337.8 337.9 337.8 348.8 344.5 355.5C347.8 358.8 352.2 360.5 356.6 360.5C361 360.5 365.4 358.8 368.7 355.5L467 257.2C467.5 256.6 467.9 256.2 468.3 255.8Z" fill="white"/>
<path d="M110.7 34.3H238.7C248.2 34.3 255.9 26.6 255.9 17.2C255.9 7.7 248.2 0 238.7 0H110.7C59.4 0 17.6 41.8 17.6 93.1V396.8C17.6 448.1 59.4 489.9 110.7 489.9H236.6C246.1 489.9 253.8 482.2 253.8 472.8C253.8 463.3 246.1 455.6 236.6 455.6H110.7C78.3 455.6 51.9 429.2 51.9 396.8V93.1C52 60.6 78.3 34.3 110.7 34.3Z" fill="white"/>
</g>
<defs>
<clipPath id="clip0">
<rect width="489.9" height="489.9" fill="white"/>
</clipPath>
</defs>
</svg>
