<svg width="41" height="41" viewBox="0 0 41 41" fill="none" xmlns="http://www.w3.org/2000/svg">
<path d="M28.397 9.035H13.111C12.0973 9.035 11.1252 9.43767 10.4084 10.1544C9.69168 10.8712 9.289 11.8433 9.289 12.857V24.322C9.289 24.8239 9.38786 25.3209 9.57993 25.7846C9.77201 26.2483 10.0535 26.6697 10.4084 27.0246C10.7633 27.3795 11.1847 27.661 11.6484 27.8531C12.1121 28.0451 12.6091 28.144 13.111 28.144H15.881L20.134 31.744C20.3065 31.89 20.5251 31.9701 20.751 31.9701C20.9769 31.9701 21.1956 31.89 21.368 31.744L25.626 28.144H28.397C29.4107 28.144 30.3828 27.7413 31.0996 27.0246C31.8163 26.3078 32.219 25.3357 32.219 24.322V12.857C32.219 11.8433 31.8163 10.8712 31.0996 10.1544C30.3828 9.43767 29.4107 9.035 28.397 9.035V9.035ZM30.308 24.322C30.3083 24.5731 30.259 24.8218 30.1631 25.0539C30.0672 25.286 29.9265 25.4969 29.749 25.6746C29.5715 25.8522 29.3608 25.9932 29.1288 26.0893C28.8968 26.1855 28.6481 26.235 28.397 26.235H25.627C25.1755 26.2353 24.7387 26.3954 24.394 26.687L20.755 29.761L17.117 26.684C16.7711 26.3928 16.3331 26.2337 15.881 26.235H13.111C12.6042 26.235 12.1181 26.0337 11.7597 25.6753C11.4013 25.3169 11.2 24.8308 11.2 24.324V12.857C11.2 12.3502 11.4013 11.8641 11.7597 11.5057C12.1181 11.1473 12.6042 10.946 13.111 10.946H28.397C28.648 10.946 28.8965 10.9954 29.1283 11.0915C29.3602 11.1875 29.5708 11.3283 29.7483 11.5057C29.9257 11.6832 30.0665 11.8938 30.1625 12.1257C30.2586 12.3575 30.308 12.606 30.308 12.857V24.322Z" fill="black"/>
<path d="M15.976 15.723H20.753C21.0064 15.723 21.2495 15.6223 21.4286 15.4431C21.6078 15.2639 21.7085 15.0209 21.7085 14.7675C21.7085 14.5141 21.6078 14.2711 21.4286 14.0919C21.2495 13.9127 21.0064 13.812 20.753 13.812H15.976C15.7226 13.812 15.4796 13.9127 15.3004 14.0919C15.1212 14.2711 15.0205 14.5141 15.0205 14.7675C15.0205 15.0209 15.1212 15.2639 15.3004 15.4431C15.4796 15.6223 15.7226 15.723 15.976 15.723V15.723Z" fill="black"/>
<path d="M25.531 17.634H15.976C15.7226 17.634 15.4796 17.7347 15.3004 17.9139C15.1212 18.093 15.0205 18.3361 15.0205 18.5895C15.0205 18.8429 15.1212 19.0859 15.3004 19.2651C15.4796 19.4443 15.7226 19.545 15.976 19.545H25.531C25.7844 19.545 26.0275 19.4443 26.2066 19.2651C26.3858 19.0859 26.4865 18.8429 26.4865 18.5895C26.4865 18.3361 26.3858 18.093 26.2066 17.9139C26.0275 17.7347 25.7844 17.634 25.531 17.634Z" fill="black"/>
<path d="M25.531 21.455H15.976C15.7226 21.455 15.4796 21.5557 15.3004 21.7349C15.1212 21.9141 15.0205 22.1571 15.0205 22.4105C15.0205 22.6639 15.1212 22.907 15.3004 23.0861C15.4796 23.2653 15.7226 23.366 15.976 23.366H25.531C25.7844 23.366 26.0275 23.2653 26.2066 23.0861C26.3858 22.907 26.4865 22.6639 26.4865 22.4105C26.4865 22.1571 26.3858 21.9141 26.2066 21.7349C26.0275 21.5557 25.7844 21.455 25.531 21.455V21.455Z" fill="black"/>
</svg>
