<svg xmlns="http://www.w3.org/2000/svg" width="41" height="41" viewBox="0 0 41 41"><defs><style>.a{fill:none;}</style></defs><rect class="a" width="41" height="41" rx="5"/><g transform="translate(9.289 9.035)"><path d="M19.108,0H3.822A3.822,3.822,0,0,0,0,3.822V15.287a3.822,3.822,0,0,0,3.822,3.822H6.592l4.253,3.6a.955.955,0,0,0,1.234,0l4.258-3.6h2.771a3.822,3.822,0,0,0,3.822-3.822V3.822A3.822,3.822,0,0,0,19.108,0Zm1.911,15.287A1.911,1.911,0,0,1,19.108,17.2H16.338a1.911,1.911,0,0,0-1.233.452l-3.639,3.074L7.828,17.649h0A1.911,1.911,0,0,0,6.592,17.2H3.822a1.911,1.911,0,0,1-1.911-1.911V3.822A1.911,1.911,0,0,1,3.822,1.911H19.108a1.911,1.911,0,0,1,1.911,1.911Z" transform="translate(0)"/><path d="M6.955,6.911h4.777a.955.955,0,0,0,0-1.911H6.955a.955.955,0,0,0,0,1.911Z" transform="translate(-0.268 -0.223)"/><path d="M16.51,9H6.955a.955.955,0,1,0,0,1.911H16.51A.955.955,0,1,0,16.51,9Z" transform="translate(-0.268 -0.401)"/><path d="M16.51,13H6.955a.955.955,0,1,0,0,1.911H16.51a.955.955,0,1,0,0-1.911Z" transform="translate(-0.268 -0.58)"/></g></svg>