<svg width="41" height="41" viewBox="0 0 41 41" fill="none" xmlns="http://www.w3.org/2000/svg">
<path d="M29.422 21.918L27.795 16.065C27.318 14.3495 26.2813 12.8426 24.8496 11.784C23.4179 10.7253 21.6735 10.1756 19.8935 10.2223C18.1135 10.269 16.4002 10.9093 15.026 12.0415C13.6517 13.1737 12.6954 14.7328 12.309 16.471L11.049 22.137C10.9099 22.7631 10.9131 23.4124 11.0586 24.0371C11.204 24.6617 11.4878 25.2457 11.8891 25.746C12.2904 26.2463 12.799 26.6501 13.3772 26.9275C13.9555 27.205 14.5886 27.349 15.23 27.349H16.184C16.3809 28.3168 16.9063 29.1869 17.6711 29.8118C18.436 30.4367 19.3933 30.778 20.381 30.778C21.3687 30.778 22.326 30.4367 23.0908 29.8118C23.8557 29.1869 24.3811 28.3168 24.578 27.349H25.296C25.9565 27.3491 26.608 27.1965 27.1997 26.903C27.7914 26.6096 28.3072 26.1832 28.7068 25.6573C29.1064 25.1315 29.379 24.5203 29.5033 23.8716C29.6275 23.2229 29.6 22.5543 29.423 21.918H29.422ZM20.381 29.063C19.8514 29.0608 19.3355 28.895 18.9038 28.5884C18.472 28.2817 18.1456 27.8492 17.969 27.35H22.793C22.6164 27.8492 22.2899 28.2817 21.8582 28.5884C21.4264 28.895 20.9105 29.0608 20.381 29.063V29.063ZM27.341 24.618C27.1023 24.9346 26.7931 25.1912 26.438 25.3674C26.0828 25.5436 25.6915 25.6345 25.295 25.633H15.23C14.8453 25.6329 14.4655 25.5464 14.1186 25.3798C13.7718 25.2133 13.4668 24.9711 13.2261 24.671C12.9854 24.3708 12.8151 24.0205 12.7279 23.6458C12.6406 23.2711 12.6386 22.8816 12.722 22.506L13.981 16.842C14.2846 15.477 15.0358 14.2526 16.1151 13.3634C17.1945 12.4743 18.54 11.9714 19.938 11.9348C21.3359 11.8981 22.706 12.3297 23.8304 13.1611C24.9549 13.9924 25.7692 15.1757 26.144 16.523L27.771 22.378C27.8784 22.7594 27.8955 23.1606 27.8209 23.5498C27.7462 23.939 27.5819 24.3054 27.341 24.62V24.618Z" fill="black"/>
</svg>
