<svg xmlns="http://www.w3.org/2000/svg" width="41" height="41" viewBox="0 0 41 41"><defs><style>.a{fill:none;}</style></defs><rect class="a" width="41" height="41" rx="5"/><path d="M19.461,11.7,17.834,5.847a7.984,7.984,0,0,0-15.486.406l-1.26,5.666a4.283,4.283,0,0,0,4.181,5.212h.954a4.283,4.283,0,0,0,8.394,0h.718A4.283,4.283,0,0,0,19.462,11.7ZM10.42,18.845a2.57,2.57,0,0,1-2.412-1.713h4.824a2.57,2.57,0,0,1-2.412,1.713ZM17.38,14.4a2.55,2.55,0,0,1-2.046,1.015H5.269a2.57,2.57,0,0,1-2.508-3.127L4.02,6.624a6.271,6.271,0,0,1,12.163-.319l1.627,5.855a2.55,2.55,0,0,1-.43,2.242Z" transform="translate(9.961 10.218)"/></svg>