<svg width="44" height="44" viewBox="0 0 44 44" fill="none" xmlns="http://www.w3.org/2000/svg">
<path d="M37 0H7C3.13401 0 0 3.13401 0 7V37C0 40.866 3.13401 44 7 44H37C40.866 44 44 40.866 44 37V7C44 3.13401 40.866 0 37 0Z" fill="white"/>
<g clip-path="url(#clip0)">
<path d="M30.2 14.786L26.714 11.3C26.0656 10.6481 25.2943 10.1312 24.4448 9.77937C23.5953 9.42749 22.6845 9.24757 21.765 9.25002H17.25C15.9244 9.25161 14.6536 9.77891 13.7162 10.7162C12.7789 11.6536 12.2516 12.9244 12.25 14.25V28.25C12.2516 29.5756 12.7789 30.8465 13.7162 31.7838C14.6536 32.7211 15.9244 33.2484 17.25 33.25H27.25C28.5756 33.2484 29.8464 32.7211 30.7838 31.7838C31.7211 30.8465 32.2484 29.5756 32.25 28.25V19.735C32.2525 18.8155 32.0725 17.9047 31.7207 17.0552C31.3688 16.2057 30.8519 15.4344 30.2 14.786V14.786ZM28.786 16.2C29.091 16.5144 29.3536 16.8674 29.567 17.25H25.25C24.9848 17.25 24.7304 17.1447 24.5429 16.9571C24.3554 16.7696 24.25 16.5152 24.25 16.25V11.933C24.6326 12.1464 24.9856 12.409 25.3 12.714L28.786 16.2ZM30.25 28.25C30.25 29.0457 29.9339 29.8087 29.3713 30.3713C28.8087 30.934 28.0456 31.25 27.25 31.25H17.25C16.4544 31.25 15.6913 30.934 15.1287 30.3713C14.5661 29.8087 14.25 29.0457 14.25 28.25V14.25C14.25 13.4544 14.5661 12.6913 15.1287 12.1287C15.6913 11.5661 16.4544 11.25 17.25 11.25H21.765C21.93 11.25 22.088 11.282 22.25 11.297V16.25C22.25 17.0457 22.5661 17.8087 23.1287 18.3713C23.6913 18.934 24.4544 19.25 25.25 19.25H30.203C30.218 19.412 30.25 19.57 30.25 19.735V28.25ZM26.974 22.561C27.1566 22.7531 27.2555 23.0098 27.2489 23.2748C27.2424 23.5397 27.1309 23.7912 26.939 23.974L23.35 27.388C22.7858 27.9433 22.0251 28.2531 21.2335 28.2499C20.4419 28.2467 19.6837 27.9308 19.124 27.371L17.584 25.997C17.3859 25.8204 17.266 25.5723 17.2509 25.3073C17.2433 25.1761 17.2617 25.0447 17.305 24.9206C17.3483 24.7965 17.4155 24.6821 17.503 24.584C17.5905 24.4859 17.6964 24.406 17.8147 24.3489C17.9331 24.2917 18.0615 24.2584 18.1927 24.2509C18.4577 24.2357 18.7179 24.3264 18.916 24.503L20.501 25.917C20.5917 26.0189 20.7024 26.1012 20.8261 26.1587C20.9498 26.2163 21.084 26.2479 21.2204 26.2516C21.3567 26.2554 21.4925 26.2312 21.6191 26.1805C21.7458 26.1298 21.8608 26.0538 21.957 25.957L25.557 22.526C25.6522 22.435 25.7644 22.3637 25.8873 22.3162C26.0101 22.2686 26.1411 22.2459 26.2728 22.2491C26.4044 22.2524 26.5342 22.2816 26.6545 22.3351C26.7748 22.3886 26.8834 22.4654 26.974 22.561V22.561Z" fill="#439565" stroke="#439565"/>
</g>
<defs>
<clipPath id="clip0">
<rect width="20.5" height="24.5" fill="white" transform="translate(12 9)"/>
</clipPath>
</defs>
</svg>
